<?xml version="1.0" encoding="UTF-8"?>
<svg id="Layer_1" xmlns="http://www.w3.org/2000/svg" version="1.1" viewBox="0 0 160 160">
  <!-- Generator: Adobe Illustrator 29.6.1, SVG Export Plug-In . SVG Version: 2.1.1 Build 9)  -->
  <defs>
    <style>
      .st0 {
        fill: #f7f7f7;
      }

      .st1 {
        fill: #ffce5c;
      }
    </style>
  </defs>
  <g>
    <path class="st0" d="M0,113.2l11.8-14.1c5,6.7,10.4,10.1,17,10.1s12.9-5.1,12.9-15.1v-43.5H9.5v-17h53.1v59.3c0,22.6-11.4,33.7-32.9,33.7s-23.1-4.7-29.8-13.3Z"/>
    <path class="st1" d="M106.1,89l-12.3,12.8v23.1h-21V33.5h21v42.7l40.5-42.7h23.5l-37.9,40.7,40.1,50.7h-24.7l-29.2-35.9Z"/>
  </g>
  <g>
    <path class="st0" d="M252.8,84l4-4.7c1.7,2.2,3.5,3.4,5.7,3.4s4.3-1.7,4.3-5.1v-14.6h-10.8v-5.7h17.9v19.9c0,7.6-3.8,11.3-11.1,11.3s-7.8-1.6-10-4.5Z"/>
    <path class="st0" d="M280.6,74.4v-17.2h7.1v16.9c0,5.8,2.5,8.3,6.8,8.3s6.8-2.4,6.8-8.3v-16.9h7v17.2c0,9-5.2,14.1-13.9,14.1s-13.9-5-13.9-14.1Z"/>
    <path class="st0" d="M313.1,84.9l2.4-5.4c2.6,1.9,6.5,3.2,10.1,3.2s5.9-1.4,5.9-3.3c0-5.8-17.9-1.8-17.9-13.2s4.2-9.6,13-9.6,7.8.9,10.7,2.7l-2.2,5.4c-2.9-1.6-5.8-2.4-8.5-2.4-4.2,0-5.8,1.6-5.8,3.5,0,5.7,17.9,1.8,17.9,13s-4.3,9.5-13,9.5-9.8-1.5-12.5-3.6Z"/>
    <path class="st0" d="M349.4,63h-9.8v-5.8h26.8v5.8h-9.8v24.9h-7.1v-24.9Z"/>
    <path class="st0" d="M370.2,57.2h7.1v30.7h-7.1v-30.7Z"/>
    <path class="st0" d="M412.8,57.2v30.7h-5.8l-15.3-18.7v18.7h-7v-30.7h5.9l15.3,18.7v-18.7h7Z"/>
    <path class="st1" d="M266.5,112.7l-4.1,4.3v7.8h-7.1v-30.7h7.1v14.4l13.6-14.4h7.9l-12.7,13.7,13.5,17h-8.3l-9.8-12.1Z"/>
    <path class="st1" d="M306.7,118.2h-14.3l-2.7,6.6h-7.3l13.7-30.7h7l13.7,30.7h-7.5l-2.7-6.6ZM304.4,112.8l-4.9-11.8-4.9,11.8h9.7Z"/>
    <path class="st1" d="M348.2,94v30.7h-5.8l-15.3-18.7v18.7h-7v-30.7h5.9l15.3,18.7v-18.7h7Z"/>
    <path class="st1" d="M351.2,120.8l4-4.7c1.7,2.2,3.5,3.4,5.7,3.4s4.3-1.7,4.3-5.1v-14.6h-10.8v-5.7h17.9v19.9c0,7.6-3.8,11.3-11.1,11.3s-7.8-1.6-10-4.5Z"/>
    <path class="st1" d="M379.3,94h7.1v30.7h-7.1v-30.7Z"/>
    <path class="st1" d="M391.5,120.8c0-2.5,1.9-4.2,4.3-4.2s4.3,1.7,4.3,4.2-1.9,4.3-4.3,4.3-4.3-1.8-4.3-4.3Z"/>
  </g>
</svg>